<?xml version="1.0" encoding="UTF-8" standalone="no"?>
<svg
   xmlns:dc="http://purl.org/dc/elements/1.1/"
   xmlns:cc="http://creativecommons.org/ns#"
   xmlns:rdf="http://www.w3.org/1999/02/22-rdf-syntax-ns#"
   xmlns:svg="http://www.w3.org/2000/svg"
   xmlns="http://www.w3.org/2000/svg"
   height="130.2"
   width="132.60001"
   xml:space="preserve"
   viewBox="0 0 132.6 130.2"
   y="0px"
   x="0px"
   id="Calque_1"
   version="1.1"><metadata
     id="metadata39"><rdf:RDF><cc:Work
         rdf:about=""><dc:format>image/svg+xml</dc:format><dc:type
           rdf:resource="http://purl.org/dc/dcmitype/StillImage" /><dc:title></dc:title></cc:Work></rdf:RDF></metadata><defs
     id="defs37" /><style
     id="style3"
     type="text/css">
	.st0{fill:#717073;}
	.st1{fill:#919195;}
	.st2{fill:#003A63;}
</style><path
     style="fill:#919195"
     id="path29"
     d="m 66.4,130.2 c -15.7,0 -31,-5.5 -43,-15.5 l -0.1,-0.1 c -1.4,-1.4 -2.2,-3.3 -2.2,-5.3 0,-2.7 1.4,-5.8 3.7,-8 L 58.7,67.7 c 2.1,-2 4.8,-3.2 7.7,-3.2 2.9,0 5.7,1.1 7.7,3.2 l 33.9,33.6 c 4.5,4.4 5.1,9.5 1.5,13.3 l -0.2,0.2 c -11.9,9.9 -27.2,15.4 -42.9,15.4"
     class="st1" /><path
     style="fill:#003a63"
     id="path31"
     d="m 120.5,94.6 c -2.8,0 -5.5,-1.4 -7.7,-3.8 L 82.4,60.7 c -4.3,-4.2 -10,-6.6 -16.1,-6.7 -6.1,0.1 -11.8,2.4 -16,6.7 L 19.9,90.8 c -2.6,2.5 -5.4,3.8 -8,3.8 -3,0 -5.4,-1.7 -7,-4.6 L 4.8,89.9 C 1.5,81.8 0,74.1 0,65.6 0,29.4 29.8,0 66.3,0 c 36.6,0 66.3,29.4 66.3,65.6 0,8.5 -1.5,16.2 -4.8,24.3 l -0.1,0.1 c -1.4,2.9 -4.1,4.6 -7.2,4.6"
     class="st2" /></svg>